<?xml version="1.0" encoding="UTF-8" standalone="no"?>
<svg
   id="Layer_2"
   viewBox="0 0 388.23999 388.23999"
   version="1.1"
   sodipodi:docname="nebari-logo-with-bg.svg"
   width="388.23999"
   height="388.23999"
   inkscape:version="1.3.1 (9b9bdc1480, 2023-11-25, custom)"
   xmlns:inkscape="http://www.inkscape.org/namespaces/inkscape"
   xmlns:sodipodi="http://sodipodi.sourceforge.net/DTD/sodipodi-0.dtd"
   xmlns="http://www.w3.org/2000/svg"
   xmlns:svg="http://www.w3.org/2000/svg">
  <sodipodi:namedview
     id="namedview8"
     pagecolor="#ffffff"
     bordercolor="#000000"
     borderopacity="0.25"
     inkscape:showpageshadow="2"
     inkscape:pageopacity="0.0"
     inkscape:pagecheckerboard="0"
     inkscape:deskcolor="#d1d1d1"
     inkscape:zoom="1.6506889"
     inkscape:cx="294.11963"
     inkscape:cy="143.57642"
     inkscape:window-width="1854"
     inkscape:window-height="1011"
     inkscape:window-x="1986"
     inkscape:window-y="32"
     inkscape:window-maximized="1"
     inkscape:current-layer="Layer_2" />
  <defs
     id="defs1">
    <style
       id="style1">.cls-1{fill:#eab54e;}.cls-2{fill:#ba18dd;}.cls-3{fill:#20aaa1;}</style>
  </defs>
  <circle
     style="opacity:0.75;fill:#000000;stroke-width:0.954524"
     id="path10"
     cx="194.12"
     cy="194.12"
     r="194.12" />
  <g
     id="Layer_1-2"
     transform="translate(0,18.000924)">
    <g
       id="g8">
      <rect
         class="cls-3"
         x="290.12"
         y="108.43"
         width="98.120003"
         height="32.110001"
         rx="16.049999"
         ry="16.049999"
         id="rect1" />
      <rect
         class="cls-3"
         x="291.32999"
         y="196.42"
         width="78.690002"
         height="32.110001"
         rx="16.049999"
         ry="16.049999"
         id="rect2" />
      <rect
         class="cls-3"
         x="51.040001"
         y="112.31"
         width="211.03999"
         height="32.110001"
         rx="16.049999"
         ry="16.049999"
         id="rect3" />
      <rect
         class="cls-3"
         x="35.66"
         y="71.209999"
         width="153.58"
         height="32.110001"
         rx="16.049999"
         ry="16.049999"
         id="rect4" />
      <rect
         class="cls-3"
         x="0"
         y="153.39"
         width="72.300003"
         height="32.110001"
         rx="16.049999"
         ry="16.049999"
         id="rect5" />
      <rect
         class="cls-3"
         x="130.5"
         y="29.959999"
         width="90.32"
         height="32.110001"
         rx="16.049999"
         ry="16.049999"
         id="rect6" />
      <rect
         class="cls-3"
         x="169.85001"
         y="153.28"
         width="178.95"
         height="32.110001"
         rx="16.049999"
         ry="16.049999"
         id="rect7" />
      <path
         class="cls-2"
         d="m 252.41,317.08 c 28.69,-6.6 48.29,-18.08 61.71,-36.15 7.49,-10.09 12.41,-22.03 15.79,-38.45 l -37.8,0.03 c -3.12,13.55 -11.43,23.92 -24.73,30.85 -15.65,8.16 -32.85,10 -49.49,11.79 -1.29,0.14 -2.59,0.28 -3.88,0.42 -4.88,0.54 -5.76,-3.25 -6.18,-5.07 -4.09,-17.61 -14.18,-30.91 -29.98,-39.54 -1.25,-0.68 -2.95,-1.81 -3.31,-3.71 -0.35,-1.85 0.74,-3.45 1.73,-4.63 7.9,-9.45 12.43,-20.79 15.73,-31.02 l -39.22,0.02 c -5.01,10.56 -13.38,18.22 -25.55,23.39 -17.74,7.54 -36.29,8.5 -55.13,2.87 -14.18,-4.24 -22.72,-13.05 -25.4,-26.2 L 9.62,201.62 c 4.68,33.7 24.52,54.98 59.01,63.28 16.47,3.96 33.66,3.71 50.28,3.48 l 2.59,-0.04 c 1.75,-0.02 3.5,-0.07 5.25,-0.11 2.56,-0.07 5.16,-0.13 7.76,-0.13 5.49,0 11.05,0.3 16.57,1.52 14.1,3.11 21.39,11.99 21.66,26.38 0.23,12.12 -4.14,23.26 -13.37,34.07 -7.34,8.59 -16.3,15.36 -24.96,21.91 -1.34,1.01 -2.7,2.04 -4.05,3.07 l 55.93,-0.07 c 7.93,-9.1 13.5,-18 17.01,-27.16 1.73,-4.52 4.78,-5.3 7.83,-5.48 12.34,-0.73 26.9,-1.92 41.29,-5.23 z"
         id="path7" />
      <path
         class="cls-1"
         d="M 289.62,92.03 C 315.27,92.15 336.13,71.96 336.33,46.81 336.54,21.15 316.06,0.16 290.68,0 c -25.63,-0.16 -46.74,20.49 -46.77,45.75 -0.03,25.42 20.46,46.17 45.71,46.29 z"
         id="path8" />
    </g>
  </g>
</svg>
