<?xml version="1.0" encoding="UTF-8" standalone="no"?>
<svg
   id="Layer_2"
   viewBox="0 0 25 25"
   version="1.1"
   sodipodi:docname="nebari-logo-with-bg-backup.svg"
   width="25"
   height="25"
   inkscape:version="1.3.1 (9b9bdc1480, 2023-11-25, custom)"
   xmlns:inkscape="http://www.inkscape.org/namespaces/inkscape"
   xmlns:sodipodi="http://sodipodi.sourceforge.net/DTD/sodipodi-0.dtd"
   xmlns="http://www.w3.org/2000/svg"
   xmlns:svg="http://www.w3.org/2000/svg">
  <sodipodi:namedview
     id="namedview8"
     pagecolor="#ffffff"
     bordercolor="#000000"
     borderopacity="0.25"
     inkscape:showpageshadow="2"
     inkscape:pageopacity="0.0"
     inkscape:pagecheckerboard="0"
     inkscape:deskcolor="#d1d1d1"
     inkscape:zoom="9.1554265"
     inkscape:cx="19.715084"
     inkscape:cy="35.279624"
     inkscape:window-width="1920"
     inkscape:window-height="1043"
     inkscape:window-x="0"
     inkscape:window-y="0"
     inkscape:window-maximized="1"
     inkscape:current-layer="Layer_2"
     showgrid="false" />
  <defs
     id="defs1">
    <style
       id="style1">.cls-1{fill:#eab54e;}.cls-2{fill:#ba18dd;}.cls-3{fill:#20aaa1;}</style>
  </defs>
  <g
     id="g1"
     transform="scale(0.06439316)">
    <path
       id="path10"
       style="opacity:0.75;stroke-width:0.954524"
       d="M 388.23999,194.12 A 194.12,194.12 0 0 1 194.12,388.23999 194.12,194.12 0 0 1 0,194.12 194.12,194.12 0 0 1 194.12,0 194.12,194.12 0 0 1 388.23999,194.12 Z" />
    <g
       id="Layer_1-2"
       transform="translate(0,18.000924)">
      <g
         id="g8">
        <path
           id="rect1"
           class="cls-3"
           style="fill:#20aaa1"
           d="M 306.16999,108.43 H 372.19 c 8.8917,0 16.05,7.1583 16.05,16.05 v 0.01 c 0,8.8917 -7.1583,16.05 -16.05,16.05 h -66.02001 c -8.8917,0 -16.04999,-7.1583 -16.04999,-16.05 v -0.01 c 0,-8.8917 7.15829,-16.05 16.04999,-16.05 z" />
        <path
           id="rect2"
           class="cls-3"
           style="fill:#20aaa1"
           d="m 307.37999,196.42 h 46.59 c 8.8917,0 16.05,7.1583 16.05,16.05 v 0.01 c 0,8.8917 -7.1583,16.05 -16.05,16.05 h -46.59 c -8.8917,0 -16.05,-7.1583 -16.05,-16.05 v -0.01 c 0,-8.8917 7.1583,-16.05 16.05,-16.05 z" />
        <path
           id="rect3"
           class="cls-3"
           style="fill:#20aaa1"
           d="m 67.09,112.31 h 178.93999 c 8.8917,0 16.05,7.1583 16.05,16.05 v 0.01 c 0,8.8917 -7.1583,16.05 -16.05,16.05 H 67.09 c -8.891699,0 -16.049999,-7.1583 -16.049999,-16.05 v -0.01 c 0,-8.8917 7.1583,-16.05 16.049999,-16.05 z" />
        <path
           id="rect4"
           class="cls-3"
           style="fill:#20aaa1"
           d="M 51.709999,71.209999 H 173.19 c 8.8917,0 16.05,7.1583 16.05,16.049999 v 0.01 c 0,8.8917 -7.1583,16.050002 -16.05,16.050002 H 51.709999 C 42.8183,103.32 35.66,96.1617 35.66,87.27 v -0.01 c 0,-8.891699 7.1583,-16.049999 16.049999,-16.049999 z" />
        <path
           id="rect5"
           class="cls-3"
           style="fill:#20aaa1"
           d="m 16.049999,153.39 h 40.200005 c 8.891699,0 16.049999,7.1583 16.049999,16.05 v 0.01 c 0,8.8917 -7.1583,16.05 -16.049999,16.05 H 16.049999 C 7.1582997,185.5 0,178.3417 0,169.45 v -0.01 c 0,-8.8917 7.1582997,-16.05 16.049999,-16.05 z" />
        <path
           id="rect6"
           class="cls-3"
           style="fill:#20aaa1"
           d="m 146.55,29.959999 h 58.22 c 8.8917,0 16.05,7.1583 16.05,16.049999 v 0.01 c 0,8.8917 -7.1583,16.05 -16.05,16.05 h -58.22 c -8.8917,0 -16.05,-7.1583 -16.05,-16.05 v -0.01 c 0,-8.891699 7.1583,-16.049999 16.05,-16.049999 z" />
        <path
           id="rect7"
           class="cls-3"
           style="fill:#20aaa1"
           d="M 185.90001,153.28 H 332.75 c 8.8917,0 16.05,7.1583 16.05,16.05 v 0.01 c 0,8.8917 -7.1583,16.05 -16.05,16.05 H 185.90001 c -8.8917,0 -16.05,-7.1583 -16.05,-16.05 v -0.01 c 0,-8.8917 7.1583,-16.05 16.05,-16.05 z" />
        <path
           class="cls-2"
           d="m 252.41,317.08 c 28.69,-6.6 48.29,-18.08 61.71,-36.15 7.49,-10.09 12.41,-22.03 15.79,-38.45 l -37.8,0.03 c -3.12,13.55 -11.43,23.92 -24.73,30.85 -15.65,8.16 -32.85,10 -49.49,11.79 -1.29,0.14 -2.59,0.28 -3.88,0.42 -4.88,0.54 -5.76,-3.25 -6.18,-5.07 -4.09,-17.61 -14.18,-30.91 -29.98,-39.54 -1.25,-0.68 -2.95,-1.81 -3.31,-3.71 -0.35,-1.85 0.74,-3.45 1.73,-4.63 7.9,-9.45 12.43,-20.79 15.73,-31.02 l -39.22,0.02 c -5.01,10.56 -13.38,18.22 -25.55,23.39 -17.74,7.54 -36.29,8.5 -55.13,2.87 -14.18,-4.24 -22.72,-13.05 -25.4,-26.2 L 9.62,201.62 c 4.68,33.7 24.52,54.98 59.01,63.28 16.47,3.96 33.66,3.71 50.28,3.48 l 2.59,-0.04 c 1.75,-0.02 3.5,-0.07 5.25,-0.11 2.56,-0.07 5.16,-0.13 7.76,-0.13 5.49,0 11.05,0.3 16.57,1.52 14.1,3.11 21.39,11.99 21.66,26.38 0.23,12.12 -4.14,23.26 -13.37,34.07 -7.34,8.59 -16.3,15.36 -24.96,21.91 -1.34,1.01 -2.7,2.04 -4.05,3.07 l 55.93,-0.07 c 7.93,-9.1 13.5,-18 17.01,-27.16 1.73,-4.52 4.78,-5.3 7.83,-5.48 12.34,-0.73 26.9,-1.92 41.29,-5.23 z"
           id="path7" />
        <path
           class="cls-1"
           d="M 289.62,92.03 C 315.27,92.15 336.13,71.96 336.33,46.81 336.54,21.15 316.06,0.16 290.68,0 c -25.63,-0.16 -46.74,20.49 -46.77,45.75 -0.03,25.42 20.46,46.17 45.71,46.29 z"
           id="path8" />
      </g>
    </g>
  </g>
</svg>
